<?xml version="1.0" encoding="utf-8"?>
<!-- Generator: Adobe Illustrator 22.0.1, SVG Export Plug-In . SVG Version: 6.00 Build 0)  -->
<svg version="1.1" id="Capa_1" xmlns="http://www.w3.org/2000/svg" xmlns:xlink="http://www.w3.org/1999/xlink" x="0px" y="0px"
	 viewBox="0 0 118 38" style="enable-background:new 0 0 118 38;" xml:space="preserve">
<style type="text/css">
	.st0{fill:#211915;}
	.st1{clip-path:url(#SVGID_2_);fill:url(#SVGID_3_);}
	.st2{clip-path:url(#SVGID_2_);fill:url(#SVGID_4_);}
	.st3{clip-path:url(#SVGID_2_);fill:url(#SVGID_5_);}
	.st4{clip-path:url(#SVGID_2_);fill:url(#SVGID_6_);}
	.st5{fill:#F9F9F9;}
	.st6{fill:#FDFDFD;}
	.st7{fill:#FFFFFF;}
</style>
<g>
	<path class="st0" d="M116,32.6c0,2.8-2.3,5-5,5H7c-2.8,0-5-2.3-5-5V5.4c0-2.8,2.3-5,5-5H111c2.8,0,5,2.3,5,5V32.6z"/>
	<g id="PLAY_1_">
		<defs>
			<path id="SVGID_1_" d="M26.7,16.8l-5.1-3c0,0-9.4-5.4-9.9-5.7c-0.6-0.3-1.1-0.1-1.1,0.5c0,1.1,0,11.5,0,11.5s0,11.3,0,11.8
				c0,0.5,0.4,0.7,0.9,0.4c0.5-0.3,10.1-5.9,10.1-5.9l5.1-3c0,0,4.4-2.5,4.9-2.9c0.6-0.3,0.5-0.8,0-1.1
				C31.2,19.4,26.7,16.8,26.7,16.8z"/>
		</defs>
		<clipPath id="SVGID_2_">
			<use xlink:href="#SVGID_1_"  style="overflow:visible;"/>
		</clipPath>
		<linearGradient id="SVGID_3_" gradientUnits="userSpaceOnUse" x1="16.9179" y1="7.5339" x2="16.9179" y2="32.7871">
			<stop  offset="0" style="stop-color:#507AAB"/>
			<stop  offset="0.1134" style="stop-color:#5B84AD"/>
			<stop  offset="0.7108" style="stop-color:#92B7B9"/>
			<stop  offset="1" style="stop-color:#A8CBBD"/>
		</linearGradient>
		<polygon class="st1" points="10.6,7.5 10.6,20.2 10.6,32.8 23.3,20.2 		"/>
		<linearGradient id="SVGID_4_" gradientUnits="userSpaceOnUse" x1="10.5508" y1="13.8013" x2="26.7053" y2="13.8013">
			<stop  offset="0" style="stop-color:#83B8A8"/>
			<stop  offset="1" style="stop-color:#E6E99D"/>
		</linearGradient>
		<polygon class="st2" points="26.7,16.8 21.6,13.8 10.6,7.4 10.6,7.5 23.3,20.2 		"/>
		<linearGradient id="SVGID_5_" gradientUnits="userSpaceOnUse" x1="18.6279" y1="20.1607" x2="18.6279" y2="32.8789">
			<stop  offset="0" style="stop-color:#C44739"/>
			<stop  offset="0.1224" style="stop-color:#BA4845"/>
			<stop  offset="0.7137" style="stop-color:#8E4C7C"/>
			<stop  offset="1" style="stop-color:#7D4E92"/>
		</linearGradient>
		<polygon class="st3" points="10.6,32.8 10.6,32.9 21.6,26.5 26.7,23.6 23.3,20.2 		"/>
		<linearGradient id="SVGID_6_" gradientUnits="userSpaceOnUse" x1="27.9322" y1="16.7691" x2="27.9322" y2="23.5518">
			<stop  offset="0" style="stop-color:#D68C7B"/>
			<stop  offset="0.6175" style="stop-color:#E5B67A"/>
			<stop  offset="1" style="stop-color:#EDCC7A"/>
		</linearGradient>
		<polygon class="st4" points="26.7,16.8 23.3,20.2 26.7,23.6 32.6,20.2 		"/>
	</g>
	<g>
		<path class="st5" d="M90.7,25.1c-0.5,0-0.9-0.1-1.3-0.3c-0.4-0.2-0.7-0.4-1-0.8h-0.1c0.1,0.4,0.1,0.8,0.1,1.2v3h-1.1V17.6h0.9
			l0.2,1h0.1c0.3-0.4,0.6-0.7,1-0.9c0.4-0.2,0.8-0.3,1.3-0.3c1,0,1.7,0.3,2.3,1c0.5,0.7,0.8,1.6,0.8,2.8c0,1.2-0.3,2.1-0.8,2.8
			C92.4,24.8,91.7,25.1,90.7,25.1z M90.6,18.4c-0.8,0-1.3,0.2-1.6,0.6c-0.3,0.4-0.5,1.1-0.5,2v0.2c0,1,0.2,1.8,0.5,2.2
			c0.3,0.4,0.9,0.7,1.7,0.7c0.6,0,1.1-0.3,1.5-0.8c0.4-0.5,0.5-1.2,0.5-2.1c0-0.9-0.2-1.6-0.5-2.1C91.7,18.7,91.2,18.4,90.6,18.4z"
			/>
		<path class="st5" d="M96.3,25h-1.1V14.5h1.1V25z"/>
		<path class="st5" d="M102.7,25l-0.2-1h-0.1c-0.4,0.5-0.7,0.8-1.1,0.9c-0.4,0.2-0.8,0.2-1.4,0.2c-0.7,0-1.3-0.2-1.7-0.6
			c-0.4-0.4-0.6-0.9-0.6-1.6c0-1.5,1.2-2.3,3.6-2.3l1.2,0v-0.5c0-0.6-0.1-1-0.4-1.3c-0.2-0.3-0.6-0.4-1.2-0.4
			c-0.6,0-1.3,0.2-2.1,0.6l-0.3-0.9c0.4-0.2,0.8-0.4,1.2-0.5c0.4-0.1,0.9-0.2,1.3-0.2c0.9,0,1.5,0.2,1.9,0.6c0.4,0.4,0.6,1,0.6,1.9
			v5H102.7z M100.2,24.2c0.7,0,1.2-0.2,1.6-0.6c0.4-0.4,0.6-0.9,0.6-1.6v-0.7l-1.1,0c-0.9,0-1.5,0.2-1.9,0.4
			c-0.4,0.2-0.6,0.6-0.6,1.1c0,0.4,0.1,0.7,0.4,0.9C99.4,24.1,99.8,24.2,100.2,24.2z"/>
		<path class="st5" d="M104.2,17.6h1.2l1.6,4.2c0.4,1,0.6,1.6,0.7,2.1h0.1c0.1-0.2,0.2-0.6,0.4-1.2c0.2-0.6,0.8-2.2,1.8-5.1h1.2
			l-3.2,8.4c-0.3,0.8-0.7,1.4-1.1,1.8c-0.4,0.3-0.9,0.5-1.5,0.5c-0.3,0-0.7,0-1-0.1v-0.9c0.2,0.1,0.5,0.1,0.8,0.1
			c0.8,0,1.3-0.4,1.6-1.3l0.4-1L104.2,17.6z"/>
	</g>
	<g>
		<path class="st6" d="M39.7,11.1h-0.8c0-0.1-0.1-0.4-0.2-0.9h-1.1c-0.2,0.5-0.2,0.8-0.2,0.9h-0.7c0-0.1,0.2-0.6,0.6-1.5
			c0.4-1,0.6-1.5,0.6-1.6h0.9c0,0.1,0.2,0.6,0.5,1.6C39.5,10.5,39.7,11,39.7,11.1z M38.6,9.7c-0.3-0.8-0.4-1.3-0.4-1.3h0
			c0,0.1-0.1,0.5-0.4,1.3H38.6z"/>
		<path class="st6" d="M42.7,11.1h-0.6c0-0.1-0.2-0.4-0.7-1c-0.5-0.7-0.7-1.1-0.8-1.4h0c0,0.3,0.1,0.7,0.1,0.9c0,0.4,0,0.9,0,1.4
			h-0.6c0-0.5,0-1,0-1.6c0-0.6,0-1.1,0-1.5h0.7c0,0.1,0.2,0.4,0.6,1c0.4,0.6,0.7,1.1,0.7,1.3h0c0-0.4-0.1-0.7-0.1-1
			c0-0.4,0-0.9,0-1.3h0.6c0,0.4,0,0.9,0,1.5C42.7,10,42.7,10.6,42.7,11.1z"/>
		<path class="st6" d="M46.2,9.4c0,0.5-0.1,0.8-0.4,1.2c-0.3,0.3-0.7,0.5-1.2,0.5c-0.2,0-0.6,0-1,0c0-0.5,0-1,0-1.6
			c0-0.6,0-1.1,0-1.5H44c0.1,0,0.2,0,0.3,0c0.1,0,0.2,0,0.3,0c0.6,0,1,0.1,1.3,0.4C46.1,8.6,46.2,9,46.2,9.4z M45.6,9.5
			c0-0.3-0.1-0.6-0.3-0.8c-0.2-0.2-0.5-0.3-0.8-0.3c-0.1,0-0.2,0-0.3,0c0,0.3,0,0.7,0,1c0,0.4,0,0.8,0,1.1c0.1,0,0.2,0,0.3,0
			c0.3,0,0.6-0.1,0.8-0.3C45.5,10.1,45.6,9.8,45.6,9.5z"/>
		<path class="st6" d="M49.4,11.1h-0.7c-0.2-0.6-0.3-0.9-0.4-1c-0.1-0.1-0.3-0.2-0.5-0.2c-0.1,0-0.2,0-0.3,0c0,0.4,0,0.8,0,1.2h-0.7
			c0-0.5,0-1,0-1.6c0-0.6,0-1.1,0-1.5h0.4c0,0,0.1,0,0.3,0c0.2,0,0.3,0,0.4,0c0.7,0,1.1,0.3,1.1,0.8c0,0.4-0.2,0.7-0.6,0.8v0
			c0.2,0,0.3,0.2,0.4,0.4C49,10.1,49.2,10.5,49.4,11.1z M48.5,8.9c0-0.3-0.2-0.5-0.6-0.5c-0.2,0-0.3,0-0.4,0c0,0.2,0,0.6,0,1
			c0.1,0,0.2,0,0.2,0C48.3,9.4,48.5,9.2,48.5,8.9z"/>
		<path class="st6" d="M52.8,9.4c0,0.5-0.2,0.9-0.5,1.2c-0.3,0.3-0.7,0.5-1.1,0.5c-0.4,0-0.8-0.1-1.1-0.4c-0.3-0.3-0.4-0.7-0.4-1.1
			c0-0.5,0.1-0.9,0.5-1.2c0.3-0.3,0.7-0.5,1.1-0.5c0.4,0,0.8,0.1,1.1,0.4C52.7,8.6,52.8,9,52.8,9.4z M52.2,9.5
			c0-0.3-0.1-0.6-0.3-0.8c-0.2-0.2-0.4-0.3-0.6-0.3c-0.2,0-0.4,0.1-0.6,0.3c-0.2,0.2-0.2,0.5-0.2,0.8c0,0.3,0.1,0.6,0.3,0.8
			c0.2,0.2,0.4,0.3,0.6,0.3c0.2,0,0.4-0.1,0.6-0.3C52.1,10.1,52.2,9.8,52.2,9.5z"/>
		<path class="st6" d="M54.2,11.1h-0.7c0-0.5,0-1,0-1.6c0-0.6,0-1.1,0-1.5h0.7c0,0.4,0,0.9,0,1.5C54.2,10,54.2,10.6,54.2,11.1z"/>
		<path class="st6" d="M57.7,9.4c0,0.5-0.1,0.8-0.4,1.2c-0.3,0.3-0.7,0.5-1.2,0.5c-0.2,0-0.6,0-1,0c0-0.5,0-1,0-1.6
			c0-0.6,0-1.1,0-1.5h0.4c0.1,0,0.2,0,0.3,0c0.1,0,0.2,0,0.3,0c0.6,0,1,0.1,1.3,0.4C57.5,8.6,57.7,9,57.7,9.4z M57,9.5
			c0-0.3-0.1-0.6-0.3-0.8c-0.2-0.2-0.5-0.3-0.8-0.3c-0.1,0-0.2,0-0.3,0c0,0.3,0,0.7,0,1c0,0.4,0,0.8,0,1.1c0.1,0,0.2,0,0.3,0
			c0.3,0,0.6-0.1,0.8-0.3C56.9,10.1,57,9.8,57,9.5z"/>
		<path class="st6" d="M62.3,11.1h-0.8c0-0.1-0.1-0.4-0.2-0.9h-1.1C60,10.6,60,10.9,60,11.1h-0.7c0-0.1,0.2-0.6,0.6-1.5
			c0.4-1,0.6-1.5,0.6-1.6h0.9c0,0.1,0.2,0.6,0.5,1.6C62.1,10.5,62.3,11,62.3,11.1z M61.2,9.7c-0.3-0.8-0.4-1.3-0.4-1.3h0
			c0,0.1-0.1,0.5-0.4,1.3H61.2z"/>
		<path class="st6" d="M65.1,8.8c0,0.4-0.1,0.7-0.4,0.8c-0.3,0.2-0.6,0.3-1,0.3c-0.1,0-0.1,0-0.2,0c0,0.3,0,0.7,0,1.2h-0.7
			c0-0.5,0-1,0-1.6c0-0.6,0-1.1,0-1.5h0.4c0.1,0,0.2,0,0.3,0c0.2,0,0.3,0,0.4,0c0.3,0,0.6,0.1,0.8,0.2C65,8.3,65.1,8.5,65.1,8.8z
			 M64.4,8.9c0-0.3-0.2-0.5-0.7-0.5c-0.1,0-0.2,0-0.4,0c0,0.3,0,0.6,0,1c0,0,0.1,0,0.1,0C64.2,9.4,64.4,9.3,64.4,8.9z"/>
		<path class="st6" d="M67.9,8.8c0,0.4-0.1,0.7-0.4,0.8c-0.3,0.2-0.6,0.3-1,0.3c-0.1,0-0.1,0-0.2,0c0,0.3,0,0.7,0,1.2h-0.7
			c0-0.5,0-1,0-1.6c0-0.6,0-1.1,0-1.5h0.4c0.1,0,0.2,0,0.3,0c0.2,0,0.3,0,0.4,0c0.3,0,0.6,0.1,0.8,0.2C67.8,8.3,67.9,8.5,67.9,8.8z
			 M67.3,8.9c0-0.3-0.2-0.5-0.7-0.5c-0.1,0-0.2,0-0.4,0c0,0.3,0,0.6,0,1c0,0,0.1,0,0.1,0C67,9.4,67.3,9.3,67.3,8.9z"/>
		<path class="st6" d="M72.6,9.4c0,0.5-0.1,0.9-0.5,1.2c-0.3,0.3-0.7,0.5-1.1,0.5c-0.4,0-0.8-0.1-1.1-0.4c-0.3-0.3-0.4-0.7-0.4-1.1
			c0-0.5,0.1-0.9,0.5-1.2c0.3-0.3,0.7-0.5,1.1-0.5c0.4,0,0.8,0.1,1.1,0.4C72.5,8.6,72.6,9,72.6,9.4z M72,9.5c0-0.3-0.1-0.6-0.3-0.8
			c-0.2-0.2-0.4-0.3-0.6-0.3c-0.2,0-0.4,0.1-0.6,0.3c-0.2,0.2-0.2,0.5-0.2,0.8c0,0.3,0.1,0.6,0.3,0.8c0.2,0.2,0.4,0.3,0.6,0.3
			c0.2,0,0.4-0.1,0.6-0.3C71.9,10.1,72,9.8,72,9.5z"/>
		<path class="st6" d="M75.9,11.1h-0.6c0-0.1-0.2-0.4-0.7-1c-0.5-0.7-0.7-1.1-0.8-1.4h0c0,0.3,0.1,0.7,0.1,0.9c0,0.4,0,0.9,0,1.4
			h-0.6c0-0.5,0-1,0-1.6c0-0.6,0-1.1,0-1.5H74c0,0.1,0.2,0.4,0.6,1c0.4,0.6,0.7,1.1,0.7,1.3h0c0-0.4-0.1-0.7-0.1-1
			c0-0.4,0-0.9,0-1.3h0.6c0,0.4,0,0.9,0,1.5C75.8,10,75.9,10.6,75.9,11.1z"/>
	</g>
	<g>
		<path class="st7" d="M45.8,20.6c0,1.5-0.4,2.7-1.3,3.6c-1,1.1-2.3,1.6-4,1.6c-1.6,0-2.9-0.5-4-1.6s-1.6-2.4-1.6-4
			c0-1.6,0.5-2.9,1.6-4s2.4-1.6,4-1.6c0.8,0,1.6,0.1,2.3,0.4c0.7,0.3,1.3,0.7,1.7,1.2l-1,1c-0.3-0.4-0.8-0.7-1.3-0.9
			c-0.5-0.2-1.1-0.3-1.7-0.3c-1.2,0-2.2,0.4-3,1.2c-0.8,0.8-1.2,1.9-1.2,3.1c0,1.2,0.4,2.3,1.2,3.1c0.8,0.8,1.8,1.2,3,1.2
			c1.1,0,2-0.3,2.7-0.9c0.7-0.6,1.1-1.4,1.2-2.5h-3.9v-1.3h5.3C45.8,20.1,45.8,20.4,45.8,20.6z"/>
		<path class="st7" d="M47.3,14.8h1.4v3.4l-0.1,1h0.1c0.2-0.4,0.5-0.7,1-0.9c0.4-0.2,0.9-0.4,1.4-0.4c0.9,0,1.6,0.3,2.1,0.8
			c0.5,0.5,0.7,1.3,0.7,2.2v4.7h-1.4v-4.4c0-1.3-0.6-2-1.8-2c-0.6,0-1,0.2-1.4,0.7c-0.4,0.5-0.6,1-0.6,1.6v4h-1.4V14.8z"/>
		<path class="st7" d="M55.1,21.9c0-1.1,0.4-2.1,1.1-2.8c0.7-0.7,1.6-1.1,2.7-1.1c1.1,0,2,0.4,2.7,1.1c0.7,0.7,1.1,1.7,1.1,2.8
			c0,1.2-0.4,2.1-1.1,2.8c-0.7,0.7-1.6,1.1-2.7,1.1c-1.1,0-2-0.4-2.7-1.1C55.4,24,55.1,23.1,55.1,21.9z M56.5,21.9
			c0,0.8,0.2,1.4,0.7,1.9c0.5,0.5,1,0.7,1.7,0.7c0.7,0,1.3-0.2,1.7-0.7c0.5-0.5,0.7-1.1,0.7-1.9c0-0.8-0.2-1.4-0.7-1.9
			c-0.5-0.5-1.1-0.8-1.7-0.8c-0.7,0-1.3,0.3-1.7,0.8C56.7,20.5,56.5,21.1,56.5,21.9z"/>
		<path class="st7" d="M63.6,21.9c0-1.1,0.4-2.1,1.1-2.8c0.7-0.7,1.6-1.1,2.7-1.1c1.1,0,2,0.4,2.7,1.1c0.7,0.7,1.1,1.7,1.1,2.8
			c0,1.2-0.4,2.1-1.1,2.8c-0.7,0.7-1.6,1.1-2.7,1.1c-1.1,0-2-0.4-2.7-1.1C63.9,24,63.6,23.1,63.6,21.9z M65,21.9
			c0,0.8,0.2,1.4,0.7,1.9c0.5,0.5,1,0.7,1.7,0.7c0.7,0,1.3-0.2,1.7-0.7c0.5-0.5,0.7-1.1,0.7-1.9c0-0.8-0.2-1.4-0.7-1.9
			c-0.5-0.5-1.1-0.8-1.7-0.8c-0.7,0-1.3,0.3-1.7,0.8C65.2,20.5,65,21.1,65,21.9z"/>
		<path class="st7" d="M78.1,23.6c0,0.6-0.3,1.2-0.8,1.6c-0.6,0.4-1.3,0.7-2.1,0.7c-0.7,0-1.4-0.2-2-0.6c-0.6-0.4-1-0.9-1.2-1.5
			l1.2-0.5c0.2,0.4,0.4,0.8,0.8,1c0.3,0.2,0.7,0.4,1.1,0.4c0.4,0,0.8-0.1,1.1-0.3c0.3-0.2,0.4-0.4,0.4-0.7c0-0.5-0.4-0.8-1.1-1
			l-1.3-0.3c-1.4-0.4-2.2-1.1-2.2-2.1c0-0.7,0.3-1.2,0.8-1.6c0.6-0.4,1.3-0.6,2.1-0.6c0.7,0,1.3,0.2,1.8,0.5
			c0.5,0.3,0.9,0.7,1.1,1.3l-1.2,0.5c-0.1-0.3-0.4-0.6-0.7-0.7c-0.3-0.2-0.7-0.3-1.1-0.3c-0.4,0-0.7,0.1-1,0.3
			c-0.3,0.2-0.4,0.4-0.4,0.7c0,0.4,0.4,0.7,1.2,0.9l1.1,0.3C77.3,21.7,78.1,22.4,78.1,23.6z"/>
		<path class="st7" d="M82.2,25.8c-0.6,0-1.1-0.2-1.5-0.6c-0.4-0.4-0.6-0.9-0.6-1.6v-4.2h-1.3v-1.3H80v-2.3h1.4v2.3h1.8v1.3h-1.8
			v3.7c0,0.5,0.1,0.8,0.3,1c0.2,0.2,0.4,0.3,0.7,0.3c0.1,0,0.2,0,0.3,0c0.1,0,0.2-0.1,0.3-0.1l0.4,1.2
			C83.1,25.7,82.6,25.8,82.2,25.8z"/>
	</g>
</g>
<g>
</g>
<g>
</g>
<g>
</g>
<g>
</g>
<g>
</g>
<g>
</g>
<g>
</g>
<g>
</g>
<g>
</g>
<g>
</g>
<g>
</g>
<g>
</g>
<g>
</g>
<g>
</g>
<g>
</g>
</svg>
