<?xml version="1.0" encoding="utf-8"?>
<!-- Generator: Adobe Illustrator 22.0.1, SVG Export Plug-In . SVG Version: 6.00 Build 0)  -->
<svg version="1.1" id="Capa_1" xmlns="http://www.w3.org/2000/svg" xmlns:xlink="http://www.w3.org/1999/xlink" x="0px" y="0px"
	 viewBox="0 0 347 87" style="enable-background:new 0 0 347 87;" xml:space="preserve">
<g>
	<path d="M37.4,59.3c-2.2,2.3-4.4,3.9-6.6,4.6c-2.1,0.8-4.3,1.2-6.5,1.2c-3.2,0-6-0.6-8.5-1.8c-2.5-1.2-4.7-2.9-6.4-5
		c-1.8-2.2-3.1-4.8-4-7.8C4.5,47.4,4,44,4,40.4c0-0.6,0-1.1,0-1.7c0-0.6,0-1.1,0.1-1.7c0.3-4.7,1.2-8.9,2.6-12.7
		c1.5-3.8,3.3-7,5.4-9.7C14.2,12,16.5,10,19,8.5c2.5-1.4,4.9-2.2,7.2-2.2h1.2c1.5,0,2.7,0.2,3.7,0.6c1,0.4,2,0.9,2.8,1.4
		c0.9,0.6,1.7,1.1,2.6,1.8c0.8,0.6,1.8,1.1,2.9,1.6c0.9,0.3,1.6,0.7,2.2,1.3c0.5,0.6,0.9,1.3,1.2,2.1c0.3,0.8,0.5,1.6,0.6,2.5
		c0.1,0.9,0.2,1.7,0.2,2.5v1.2c-0.1,1.3-0.2,2.5-0.4,3.6c-0.2,1.1-0.5,2.1-1,3c-0.5,0.9-1.1,1.6-1.9,2.1c-0.8,0.5-1.8,0.8-3.1,0.8
		c-1.2,0-2.1-0.3-2.8-1c-0.7-0.7-1.1-1.5-1.1-2.5c0-0.1,0-0.5,0.1-1.1c0.1-0.6,0.2-1.2,0.3-2.1c0.1-0.8,0.2-1.6,0.3-2.5
		c0.1-0.9,0.1-1.7,0.1-2.6c0-2.4-0.5-4-1.5-4.9c-1-0.9-2.3-1.4-3.9-1.4c-2.4,0-4.5,0.7-6.3,2.1c-1.8,1.4-3.3,3.3-4.5,5.7
		C16.5,23,15.6,26,15,29.5c-0.6,3.5-0.9,7.3-0.9,11.4c0,9.8,3.2,15.8,9.6,18c0.5,0.1,1,0.3,1.6,0.4c0.6,0.1,1.1,0.2,1.7,0.2
		c1.8,0,3.2-0.4,4.3-1.1c1.1-0.7,2-1.6,2.6-2.6c0.6-1.1,1.1-2.2,1.3-3.5c0.2-1.3,0.4-2.5,0.4-3.6c0-3,0.5-5.2,1.4-6.5
		c0.9-1.3,2.4-1.9,4.5-1.9c0.6,0,1.1,0.1,1.7,0.3c0.6,0.2,1.1,0.4,1.6,0.6c0.3,0.1,0.6,0.3,0.8,0.4c0.3,0.1,0.6,0.3,0.8,0.4
		c-0.5,0.8-0.9,1.6-1.3,2.4c-0.4,0.7-0.7,1.6-0.9,2.5c-0.3,0.9-0.5,1.9-0.6,3.1c-0.1,1.1-0.2,2.4-0.2,3.9c0,1.3,0.1,2.4,0.4,3.5
		c0.3,1.1,0.5,2.2,0.9,3.3c0.3,1.1,0.6,2.3,0.9,3.5c0.3,1.2,0.4,2.5,0.4,4c0,2.2-0.4,4.3-1.1,6.5c-0.7,2.1-2,4.1-3.6,5.7
		c-1.7,1.7-4,3.1-6.8,4.1S27.9,86,23.6,86c-1.7,0-3.5-0.1-5.4-0.4c-1.9-0.3-3.6-0.8-5.2-1.4c-1.5-0.7-2.8-1.6-3.9-2.7
		c-1-1.1-1.5-2.6-1.5-4.3c0-1.3,0.4-2.4,1.2-3.3c0.8-0.9,1.9-1.3,3.3-1.3c0.9,0,1.9,0.2,2.9,0.6c0,2.9,0.9,4.9,2.6,6
		c1.7,1.1,3.7,1.7,6,1.7c3.2,0,5.6-0.5,7.4-1.5c1.8-1,3.2-2.2,4.1-3.7c0.9-1.5,1.5-3,1.8-4.8c0.2-1.7,0.4-3.2,0.4-4.5V59.3z"/>
	<path d="M92,56.9c-0.1,1-0.4,2.4-0.9,4.2c-0.5,1.8-1.3,3.5-2.3,5.3c-1,1.7-2.3,3.2-3.9,4.5c-1.6,1.3-3.5,1.9-5.7,1.9
		c-2.2,0-3.9-0.6-5.2-1.9c-1.3-1.3-2.3-3-2.9-5.2c-0.7-2.2-1.1-4.9-1.3-7.9c-0.2-3.1-0.3-6.5-0.3-10.1c0-0.6,0-1.4,0-2.4
		c0-0.9,0-1.8,0.1-2.5c-0.8,1.5-1.7,3.5-2.5,5.8c-0.8,2.4-1.6,4.9-2.3,7.5c-0.7,2.7-1.2,5.4-1.6,8.2c-0.4,2.8-0.7,5.4-0.7,7.8
		c-0.7,0.1-1.5,0.3-2.3,0.5c-0.8,0.2-1.7,0.3-2.8,0.3c-0.4,0-0.9,0-1.5-0.1c-0.6-0.1-1.1-0.2-1.7-0.4c-0.6-0.2-1-0.5-1.4-0.9
		c-0.4-0.4-0.6-0.9-0.6-1.5c0-0.1,0.1-0.5,0.4-0.9c0.2-0.5,0.4-1.5,0.4-2.9V5.6c0-1-0.1-1.6-0.4-2c-0.2-0.4-0.4-0.8-0.4-1.3
		c0-0.3,0.2-0.5,0.7-0.7c0.5-0.2,1.1-0.3,1.7-0.4c0.6-0.1,1.3-0.2,1.9-0.2C57.2,1,57.8,1,58.2,1c1.8,0,3.7,0.4,5.6,1.2
		c-0.4,1.9-0.7,4.4-1,7.5c-0.3,3.1-0.6,6.3-0.9,9.7c-0.3,3.3-0.5,6.5-0.6,9.6C61.1,32,61,34.3,61,36c0,0.2,0,0.5,0,0.8
		c0,0.3,0,1.1-0.1,2.4c0,1.3-0.1,3.3-0.1,6c0,2.7-0.1,6.6-0.2,11.6c0-0.1,0.2-0.7,0.5-2c0.3-1.3,0.7-2.8,1.2-4.7
		c0.5-1.9,1.1-3.9,1.7-6.1c0.7-2.2,1.4-4.2,2.1-6c0.7-1.9,1.5-3.4,2.3-4.6c0.8-1.2,1.5-1.8,2.2-1.8c0.8,0,1.8,0.2,3.2,0.5
		c1.4,0.3,2.2,0.9,2.6,1.6c0.3,0.8,0.6,1.4,0.9,1.8c0.3,0.4,0.6,0.6,0.8,0.8c0.2,0.2,0.5,0.4,0.6,0.6c0.2,0.2,0.3,0.5,0.3,0.9
		c-0.1,0.2-0.2,0.9-0.5,2.1c-0.2,1.2-0.5,2.7-0.7,4.5c-0.2,1.8-0.5,3.8-0.7,5.9c-0.2,2.1-0.3,4.3-0.3,6.4c0,2.8,0.2,5.2,0.7,7.3
		c0.5,2,1.4,3.1,2.8,3.1c1.4,0,2.6-0.4,3.5-1.3c0.9-0.8,1.7-1.9,2.3-3.2c0.6-1.3,1.1-2.6,1.4-4.1c0.3-1.4,0.6-2.7,0.8-3.8
		c0.4-1.5,0.9-2.2,1.6-2.2c0.8,0,1.3,0.3,1.6,0.8c0.3,0.6,0.5,1.3,0.5,2.2L92,56.9z"/>
	<path d="M122.2,41.8c0.3-0.5,0.8-0.7,1.5-0.7c0.4,0,0.6,0.2,0.7,0.6c0.1,0.4,0.2,0.8,0.2,1.1c-0.1,2.2-0.5,4.1-1.4,5.8
		c-0.9,1.7-1.8,3.2-2.8,4.5c-0.6,0.8-1.2,1.5-1.8,2.1c-0.7,0.6-1.4,1.2-2.1,1.8c-0.1,1.2-0.1,2-0.2,2.5c0,0.5-0.1,0.8-0.2,1.1
		c-0.1,1.1-0.5,2.4-1.1,4c-0.6,1.6-1.4,3.2-2.4,4.7c-1,1.5-2.2,2.9-3.7,3.9c-1.4,1.1-3.1,1.6-5,1.6c-0.6,0-1.4-0.1-2.2-0.2
		c-0.8-0.1-1.6-0.3-2.5-0.6c-0.8-0.2-1.6-0.5-2.4-0.8c-0.8-0.3-1.4-0.6-2-1c-1.8-1-3.2-2.1-4.3-3.5c-1.1-1.3-2-2.7-2.6-4.3
		c-0.6-1.5-1-3-1.2-4.6c-0.2-1.6-0.3-3.1-0.3-4.6c0-2.5,0.3-5.1,0.8-7.7c0.5-2.6,1.2-5.1,1.9-7.5c0.8-2.4,1.6-4.5,2.6-6.4
		c1-1.9,1.9-3.4,2.8-4.4c0.9-1,1.9-1.7,3.1-2c1.1-0.4,2.1-0.6,3.1-0.6c1.1,0,2.2,0.3,3.4,0.8c1.1,0.6,2.2,1.3,3.3,2.1
		c1.1,0.8,2.1,1.8,3.1,2.9c1,1.1,2,2.2,2.9,3.2c0.7,0.8,1.2,2,1.6,3.7c0.4,1.7,0.6,3.4,0.8,5.2c0.1,1,0.2,2,0.3,3.1
		c0.1,1.1,0.1,2.3,0.1,3.5c1.1-0.8,1.9-1.7,2.5-2.7c0.6-0.9,1.1-1.8,1.5-2.7c0.4-0.8,0.7-1.6,0.9-2.4
		C121.6,42.8,121.9,42.2,122.2,41.8z M109.8,59.4c-0.8,0.6-2,1-3.5,1.3c-1.5,0.3-2.7,0.4-3.7,0.4c-1.9,0-3.4-0.1-4.4-0.4
		c-1-0.3-2.1-0.8-3.3-1.7l-0.1,2.2c0,0.8,0.1,1.6,0.3,2.4c0.2,0.8,0.5,1.6,1,2.3c0.5,0.7,1.1,1.3,1.9,1.7c0.8,0.5,1.9,0.7,3.2,0.7
		c1.5,0,2.9-0.3,3.9-0.9c1.1-0.6,2-1.3,2.6-2.3c0.7-0.9,1.2-1.9,1.5-2.9C109.6,61.2,109.8,60.2,109.8,59.4z M110.2,48.9
		c0-1-0.1-2.1-0.2-3.5c-0.1-1.3-0.3-2.7-0.5-4.2c-0.2-1.4-0.6-2.8-1.1-3.9c-0.5-1.2-1-2.2-1.7-3c-0.7-0.8-1.6-1.2-2.6-1.2
		s-2.1,0.4-3.1,1.3c-1,0.8-1.9,1.9-2.6,3.3c-0.8,1.3-1.4,2.8-1.8,4.5c-0.5,1.7-0.7,3.3-0.7,4.9c0,2.8,0.6,4.9,1.7,6.2
		c1.1,1.3,3.1,1.9,5.8,1.9c2,0,3.7-0.3,5-0.9c1.3-0.6,1.9-1.1,1.9-1.5v-2C110.3,50.5,110.3,49.8,110.2,48.9z"/>
	<path d="M146.8,65.3c0,1.7-0.6,3-1.7,3.9c-1.1,0.9-2.4,1.6-3.8,2c-1.4,0.4-2.9,0.7-4.3,0.8c-1.4,0.1-2.5,0.2-3.1,0.2
		c-1,0-2.2-0.1-3.6-0.3c-1.4-0.2-2.8-0.5-4.2-1c-1.4-0.5-2.5-1.1-3.5-1.9c-0.9-0.8-1.4-1.9-1.4-3.2c0-0.8,0.3-1.3,0.9-1.6
		c0.6-0.3,1.2-0.5,1.7-0.5c0.8,0,1.5,0.3,2.3,0.8c0.7,0.6,1.5,1.2,2.3,1.8c0.8,0.6,1.7,1.2,2.7,1.8c1,0.6,2.1,0.8,3.4,0.8
		c0.6,0,1.3-0.2,2.3-0.6c0.9-0.4,1.4-1.1,1.4-2.1c0-1-0.4-1.9-1.2-2.8c-0.8-0.9-1.8-1.9-3.1-2.8c-1.2-1-2.5-2-3.9-3.1
		c-1.4-1.1-2.7-2.2-3.9-3.4c-1.2-1.2-2.2-2.6-3.1-4c-0.8-1.5-1.2-3.1-1.2-4.8c0-2.5,0.8-4.5,2.4-6.2c1.6-1.7,3.4-3,5.6-4
		c2.1-1,4.3-1.7,6.6-2.1c2.2-0.4,4-0.6,5.3-0.6c1.2,0,2.4,0.2,3.6,0.7c1.2,0.5,1.8,1.4,1.8,2.8c0,0.4-0.1,1-0.3,1.8
		c-0.2,0.8-0.5,1.6-0.8,2.4c-0.4,0.8-0.9,1.5-1.5,2.1c-0.6,0.6-1.4,0.9-2.4,0.9c-0.3,0-0.6-0.1-0.8-0.4c-0.3-0.2-0.6-0.5-0.9-0.8
		c-0.4-0.3-0.7-0.6-1.1-0.8c-0.4-0.2-0.8-0.4-1.3-0.4c-2.5,0-4.2,0.7-5.2,2.2c-1,1.4-1.5,3-1.5,4.6c0,1.4,0.8,2.9,2.5,4.4
		c1.6,1.5,3.5,3.1,5.5,4.6c2,1.5,3.8,3.1,5.5,4.6C146,62.4,146.8,63.9,146.8,65.3z"/>
	<path d="M149.1,52.8c0.1-3.6,0.2-7.2,0.3-10.9c0.1-3.7,0.3-7.2,0.4-10.3c0-0.6-0.6-0.9-1.7-1.2c-1.1-0.2-2.4-0.4-3.8-0.6
		c-1.4-0.2-2.7-0.5-3.8-1c-1.1-0.5-1.7-1.2-1.7-2.3c0-0.9,0.9-1.4,2.7-1.6c1.8-0.1,4.5-0.2,8.1-0.2c0.3,0,0.5-0.4,0.6-1.3
		c0.1-0.8,0.2-1.9,0.2-3.2c0-1.3,0.1-2.7,0.1-4.2c0-1.5,0.1-2.9,0.2-4.2c0.1-1.3,0.2-2.4,0.4-3.2c0.2-0.8,0.4-1.3,0.7-1.3
		c0.4,0,1,0.1,1.9,0.2c0.9,0.1,1.9,0.3,2.8,0.6c1,0.2,1.8,0.5,2.6,0.9c0.7,0.4,1.1,0.7,1.1,1.2l-1.2,13.7c0,0.4,0.4,0.7,1.1,0.9
		c0.7,0.2,1.7,0.3,2.8,0.3c1.2,0,2.4,0.1,3.7,0.1c1.3,0,2.5,0.1,3.7,0.3s2.1,0.5,2.8,1c0.7,0.5,1.1,1.1,1.1,2.1
		c0,0.1-0.1,0.4-0.2,0.7c-0.1,0.3-0.3,0.5-0.5,0.5c-0.1,0-0.3-0.1-0.6-0.3c-0.2-0.2-0.9-0.3-1.9-0.3c-0.3,0-1.1,0-2.3,0.1
		c-1.3,0.1-2.6,0.2-4,0.3c-1.4,0.1-2.7,0.3-3.8,0.5c-1.2,0.2-1.8,0.4-1.9,0.7c-0.1,0.1-0.2,1-0.3,2.5c-0.1,1.5-0.2,3.5-0.3,5.9
		c-0.1,2.5-0.2,5.3-0.3,8.5c-0.1,3.2-0.1,6.5-0.1,10c0,1.3,0.1,2.6,0.2,3.9c0.1,1.3,0.4,2.4,0.6,3.4c0.3,1,0.6,1.8,1.1,2.5
		c0.5,0.6,1,0.9,1.6,0.9c0.9,0,1.8-0.4,2.5-1.2c0.8-0.8,1.5-1.8,2.1-3.2c0.6-1.3,1.2-2.8,1.7-4.5c0.5-1.7,0.9-3.4,1.3-5.2
		c0.2-1.1,0.5-1.8,0.7-2.3c0.3-0.5,0.7-0.7,1.3-0.7c0.5,0,0.9,0.2,1.3,0.5c0.4,0.3,0.6,1,0.6,2.2c0,0.7,0,1.2-0.1,1.4
		c-0.2,1.3-0.6,3-1.2,5.2c-0.6,2.2-1.4,4.4-2.4,6.5c-1,2.1-2.3,4-3.7,5.6c-1.5,1.6-3.2,2.4-5.2,2.4c-1.9,0-3.5-0.5-4.9-1.6
		c-1.4-1.1-2.6-2.6-3.5-4.5c-0.9-1.9-1.7-4.2-2.2-6.8c-0.5-2.6-0.7-5.5-0.7-8.5V52.8z"/>
	<path d="M207.8,59.3c-2.2,2.3-4.4,3.9-6.6,4.6c-2.1,0.8-4.3,1.2-6.5,1.2c-3.2,0-6-0.6-8.5-1.8c-2.5-1.2-4.7-2.9-6.4-5
		c-1.8-2.2-3.1-4.8-4-7.8c-0.9-3-1.4-6.4-1.4-10c0-0.6,0-1.1,0-1.7c0-0.6,0-1.1,0.1-1.7c0.3-4.7,1.2-8.9,2.6-12.7
		c1.5-3.8,3.3-7,5.4-9.7c2.1-2.7,4.4-4.7,6.9-6.1c2.5-1.4,4.9-2.2,7.2-2.2h1.2c1.5,0,2.7,0.2,3.7,0.6c1,0.4,2,0.9,2.8,1.4
		c0.9,0.6,1.7,1.1,2.6,1.8c0.8,0.6,1.8,1.1,2.9,1.6c0.9,0.3,1.6,0.7,2.2,1.3c0.5,0.6,0.9,1.3,1.2,2.1c0.3,0.8,0.5,1.6,0.6,2.5
		c0.1,0.9,0.2,1.7,0.2,2.5v1.2c-0.1,1.3-0.2,2.5-0.4,3.6c-0.2,1.1-0.5,2.1-1,3c-0.5,0.9-1.1,1.6-1.9,2.1c-0.8,0.5-1.8,0.8-3.1,0.8
		c-1.2,0-2.1-0.3-2.8-1c-0.7-0.7-1.1-1.5-1.1-2.5c0-0.1,0-0.5,0.1-1.1c0.1-0.6,0.2-1.2,0.3-2.1c0.1-0.8,0.2-1.6,0.3-2.5
		c0.1-0.9,0.1-1.7,0.1-2.6c0-2.4-0.5-4-1.5-4.9c-1-0.9-2.3-1.4-3.9-1.4c-2.4,0-4.5,0.7-6.3,2.1c-1.8,1.4-3.3,3.3-4.5,5.7
		c-1.2,2.5-2.1,5.4-2.7,8.9c-0.6,3.5-0.9,7.3-0.9,11.4c0,9.8,3.2,15.8,9.6,18c0.5,0.1,1,0.3,1.6,0.4c0.6,0.1,1.1,0.2,1.7,0.2
		c1.8,0,3.2-0.4,4.3-1.1c1.1-0.7,2-1.6,2.6-2.6c0.6-1.1,1.1-2.2,1.3-3.5c0.2-1.3,0.4-2.5,0.4-3.6c0-3,0.5-5.2,1.4-6.5
		c0.9-1.3,2.4-1.9,4.5-1.9c0.6,0,1.1,0.1,1.7,0.3c0.6,0.2,1.1,0.4,1.6,0.6c0.3,0.1,0.6,0.3,0.8,0.4c0.3,0.1,0.6,0.3,0.8,0.4
		c-0.5,0.8-0.9,1.6-1.3,2.4c-0.4,0.7-0.7,1.6-0.9,2.5c-0.3,0.9-0.5,1.9-0.6,3.1c-0.1,1.1-0.2,2.4-0.2,3.9c0,1.3,0.1,2.4,0.4,3.5
		c0.3,1.1,0.5,2.2,0.9,3.3c0.3,1.1,0.6,2.3,0.9,3.5c0.3,1.2,0.4,2.5,0.4,4c0,2.2-0.4,4.3-1.1,6.5c-0.7,2.1-2,4.1-3.6,5.7
		c-1.7,1.7-4,3.1-6.8,4.1c-2.8,1.1-6.4,1.6-10.6,1.6c-1.7,0-3.5-0.1-5.4-0.4c-1.9-0.3-3.6-0.8-5.2-1.4c-1.5-0.7-2.8-1.6-3.9-2.7
		c-1-1.1-1.5-2.6-1.5-4.3c0-1.3,0.4-2.4,1.2-3.3c0.8-0.9,1.9-1.3,3.3-1.3c0.9,0,1.9,0.2,2.9,0.6c0,2.9,0.9,4.9,2.6,6
		c1.7,1.1,3.7,1.7,6,1.7c3.2,0,5.6-0.5,7.4-1.5c1.8-1,3.2-2.2,4.1-3.7c0.9-1.5,1.5-3,1.8-4.8c0.2-1.7,0.4-3.2,0.4-4.5V59.3z"/>
	<path d="M250.6,57c0,0.5-0.2,1.7-0.5,3.5c-0.3,1.9-0.9,3.8-1.7,5.9c-0.8,2.1-1.9,3.9-3.3,5.5c-1.4,1.6-3.1,2.4-5.2,2.4
		c-2.2,0-4-0.8-5.4-2.4c-1.3-1.6-2.4-3.5-3.1-5.7c-0.7-2.2-1.2-4.5-1.4-6.9c-0.2-2.4-0.3-4.4-0.3-6c0-1.8,0.1-3.7,0.3-5.5
		c0.2-1.9,0.4-3.7,0.4-5.5c0-0.6-0.3-0.9-0.8-1.1c-0.6-0.1-1.1-0.2-1.6-0.2c-0.8,0-1.4,0.1-1.6,0.3c-0.2,0.2-0.4,0.5-0.4,0.7
		l-0.4,3.4c-0.3,2.2-0.6,4.4-0.9,6.5c-0.3,2.1-0.7,3.9-1.1,5.5c-0.4,1.6-0.8,2.8-1.4,3.8c-0.5,0.9-1.1,1.4-1.8,1.4h-0.1
		c-0.3,0-0.5-0.1-0.8-0.2c-0.2-0.1-0.4-0.5-0.4-1.1c0-0.3,0.1-0.7,0.2-1.3c0.6-2.5,0.9-4.5,1.1-6.1c0.1-1.6,0.2-3.1,0.3-4.3v-0.7
		c0-0.4,0-0.8,0.1-1.3c0-0.5,0.1-1.1,0.1-1.8v-2.7c0-0.8,0-1.6,0-2.4c0-0.8-0.1-1.8-0.2-2.7l-0.3-6.2c0-0.4,0.2-0.8,0.5-1.2
		c0.4-0.4,0.8-0.7,1.4-0.9c0.6-0.3,1.2-0.5,1.8-0.6c0.6-0.1,1.2-0.2,1.7-0.2c1.2,0,1.8,0.8,1.8,2.3v0.5l-0.1,2.3v0.6
		c0,0.5,0.1,0.8,0.3,0.9c0.2,0.1,0.6,0.2,1.3,0.4h0.3c0.6,0.1,1.5,0.1,2.7,0.2c1.3,0.1,2.5,0.2,3.8,0.4c1.3,0.2,2.4,0.5,3.3,1
		c0.9,0.5,1.4,1.1,1.4,1.9c0,0.3-0.1,0.7-0.2,1.2c-0.1,0.5-0.3,1.1-0.5,1.6c-0.2,0.5-0.4,1-0.5,1.4c-0.1,0.4-0.2,0.7-0.2,0.8
		c-1.3,4.8-1.9,9.9-1.9,15.1c0,0.4,0,1.2,0.1,2.3c0.1,1.1,0.2,2.3,0.4,3.5c0.2,1.2,0.5,2.2,0.9,3.2c0.4,0.9,0.9,1.4,1.6,1.4
		c1.1,0,2-0.6,2.8-1.9c0.8-1.3,1.6-2.8,2.2-4.5c0.6-1.7,1.1-3.5,1.5-5.2c0.4-1.8,0.6-3.1,0.8-3.9c0.1-0.8,0.4-1.2,0.7-1.4
		c0.3-0.2,0.6-0.3,0.9-0.3c1,0,1.5,0.6,1.5,1.9c0,0.1,0,0.5-0.1,1.1C250.7,56.2,250.7,56.7,250.6,57z"/>
	<path d="M289.2,60.3c-0.1,1-0.5,2.1-1.1,3.5c-0.6,1.3-1.3,2.6-2.2,3.8c-0.9,1.2-1.9,2.3-3.1,3.1c-1.2,0.8-2.4,1.3-3.8,1.3
		c-2.1,0-3.9-0.8-5.5-2.4c-1.6-1.6-2.5-3.9-2.9-6.8c-0.4,1.1-0.9,2.4-1.5,3.9c-0.6,1.5-1.3,2.8-2.1,4.1c-0.8,1.3-1.8,2.3-2.9,3.2
		c-1.1,0.9-2.4,1.3-3.8,1.3c-0.4,0-0.7,0-0.9-0.1c-0.2-0.1-0.4-0.2-0.7-0.3c-0.2-0.1-0.5-0.2-0.8-0.3c-0.3-0.1-0.8-0.1-1.3-0.1
		c-1.7,0-3.1-0.5-4.3-1.6c-1.2-1.1-2.1-2.5-2.8-4.2c-0.7-1.7-1.2-3.5-1.5-5.5c-0.3-2-0.5-3.9-0.5-5.6c0-4.2,0.2-8.2,0.7-12
		c0.5-3.8,1.2-7.1,2.3-10c1.1-2.9,2.4-5.2,4.1-6.9c1.7-1.7,3.7-2.6,6.1-2.6c1.4,0,2.5,0.1,3.2,0.4c0.7,0.2,1.4,0.5,2.1,0.8
		c0.6,0.3,1.3,0.6,2.1,1c0.7,0.4,1.8,0.6,3.1,0.8c1.5,0.8,2.5,1.8,3.1,3c0.6,1.2,1,2.4,1.2,3.7c0.2,1.3,0.2,2.7,0.2,4.2
		c-0.1,1.4,0,2.9,0.2,4.3c0,0.1,0.2,0.2,0.5,0.3c0.3,0.1,0.7,0.3,1.1,0.5c0.4,0.2,0.8,0.4,1.1,0.7c0.3,0.3,0.5,0.7,0.5,1.2v0.4
		c-0.7,1.8-1.1,3.4-1.3,4.8c-0.1,1.4-0.2,3.1-0.2,5c0,1,0.1,2.1,0.2,3.2c0.1,1.2,0.3,2.2,0.5,3.3c0.2,1,0.6,1.9,1.1,2.5
		c0.5,0.7,1.1,1,1.9,1c0.8,0,1.6-0.4,2.3-1.3c0.7-0.8,1.2-1.8,1.7-2.9c0.5-1.1,0.8-2.2,1.2-3.3c0.3-1.1,0.5-2,0.6-2.5
		c0.1-0.8,0.5-1.3,1.1-1.3c0.4,0,0.7,0.2,1,0.6c0.3,0.4,0.5,1.1,0.5,2.1c0,0.3,0,0.5,0,0.8C289.3,59.7,289.3,60,289.2,60.3z
		 M269.8,43.3c0-0.8-0.1-1.7-0.2-2.7c-0.1-1.1-0.4-2-0.7-2.9c-0.4-0.9-0.9-1.7-1.6-2.3c-0.7-0.6-1.6-0.9-2.8-0.9
		c-2,0-3.6,0.9-4.8,2.7c-1.2,1.8-2.2,3.9-2.9,6.3c-0.7,2.4-1.2,4.9-1.4,7.5c-0.2,2.6-0.3,4.6-0.3,6c0,1.1,0.1,2.5,0.2,4
		c0.1,1.6,0.3,3.1,0.6,4.5c0.3,1.4,0.7,2.6,1.2,3.6c0.5,1,1.2,1.5,2.1,1.5c2,0,3.6-0.8,4.7-2.4c1.1-1.6,1.9-3.5,2.5-5.9
		c0.6-2.3,1-4.9,1.2-7.6c0.2-2.7,0.5-5.2,0.7-7.4c0.1-1.2,0.5-1.9,0.9-2.3c0.5-0.3,0.7-0.5,0.7-0.7V43.3z"/>
	<path d="M321.4,45.9c-1,1.9-1.9,3.9-2.7,6c-0.8,2.1-1.5,3.8-1.9,4.9c-0.1,0.4-0.3,1.1-0.6,2.2c-0.3,1.1-0.7,2.4-1.1,3.7
		c-0.4,1.4-0.7,2.7-1,4c-0.3,1.3-0.4,2.4-0.4,3.3c0,0.4-0.3,0.7-0.9,0.9c-0.6,0.3-1.4,0.4-2.4,0.4c-1.5,0-2.8-0.2-3.7-0.6
		c-0.9-0.4-1.6-1.1-2.1-2.1c-0.5-0.9-0.7-2.2-0.8-3.7c-0.1-1.5-0.2-3.4-0.2-5.6v-7.9c0-0.6,0-1.1-0.1-1.7c0-0.6-0.2-0.9-0.4-1.1
		c-0.4,0.1-0.8,1.1-1.3,2.7c-0.5,1.7-1,3.7-1.5,6.2c-0.5,2.4-0.9,5-1.2,7.6c-0.4,2.7-0.5,5-0.5,7.2c0,0.8-0.4,1.2-1.2,1.4
		c-0.8,0.1-1.7,0.2-2.7,0.2c-0.3,0-0.8-0.1-1.4-0.2c-0.7-0.1-1.3-0.2-2-0.4c-0.7-0.1-1.3-0.3-1.8-0.6c-0.6-0.2-0.9-0.5-1.1-0.9
		c-0.4-0.9-0.6-2.4-0.8-4.5c-0.2-2.1-0.3-5.4-0.3-9.8c0-2.6,0.1-5.6,0.2-9c0.1-3.4,0.2-7.5,0.4-12.1c0-0.6,0-1.5-0.1-2.5
		c-0.1-1-0.1-1.6-0.1-1.7c0-0.6,0.2-0.9,0.7-1c0.5-0.1,0.8-0.2,1-0.2c0.5,0,1.1,0.1,1.7,0.2c0.7,0.1,1.3,0.2,2,0.4
		c0.7,0.1,1.3,0.3,1.8,0.5c0.6,0.2,0.9,0.3,1.2,0.5v25.4c0.4-1.4,0.8-3,1.2-4.9c0.5-1.9,1-3.7,1.6-5.5c0.6-1.8,1.2-3.5,1.9-5
		c0.7-1.5,1.4-2.7,2.2-3.4c0.3-0.2,0.8-0.4,1.6-0.5s1.4-0.2,1.9-0.2c0.4,0,0.8,0.1,1.3,0.2c0.5,0.1,1,0.3,1.5,0.5
		c0.5,0.2,0.9,0.5,1.3,0.8c0.4,0.3,0.6,0.7,0.7,1.1v17v0.9c0,0.4,0.1,0.6,0.2,0.6c0.1,0,0.5-0.9,1.2-2.8c0.7-1.9,1.4-4.1,2.4-6.7
		c0.9-2.6,1.9-5.3,2.9-8c1-2.7,2-4.9,2.8-6.5c0.1-0.3,0.6-0.4,1.4-0.5c0.8,0,1.5-0.1,2.1-0.1c0.5,0,1.1,0.2,2,0.5
		c0.8,0.3,1.7,0.8,2.5,1.3c0.8,0.6,1.5,1.2,2.1,1.9c0.6,0.7,0.9,1.4,0.9,2.2c0,0.1-0.2,0.5-0.6,1.2c-0.4,0.7-0.7,1.4-0.8,2.1
		c-0.5,2-0.8,3.9-1,5.8c-0.2,1.9-0.3,4.3-0.3,7.3c0,1.3,0.1,2.5,0.2,3.8c0.1,1.3,0.3,2.4,0.5,3.4c0.2,1,0.6,1.8,1,2.5
		c0.4,0.6,1,0.9,1.7,0.9c1,0,1.9-0.3,2.6-1c0.8-0.7,1.4-1.6,2-2.7c0.6-1.1,1.1-2.4,1.5-3.9c0.4-1.5,0.8-3.1,1.1-4.7
		c0.4-1.7,1-2.5,1.9-2.5c0.6,0,0.9,0.1,1.1,0.4c0.2,0.3,0.3,0.9,0.3,1.9c0,0.6,0,0.9-0.1,1.2c-0.1,0.9-0.4,2.3-0.9,4.3
		c-0.5,1.9-1.3,3.9-2.2,5.8c-0.9,1.9-2.1,3.6-3.5,5c-1.4,1.4-3,2.2-4.8,2.2c-2.2,0-3.9-0.5-5.3-1.5c-1.4-1-2.5-2.4-3.2-4.1
		c-0.8-1.7-1.3-3.7-1.6-5.9c-0.3-2.2-0.5-4.6-0.5-7v-0.7L321.4,45.9z"/>
</g>
<g>
</g>
<g>
</g>
<g>
</g>
<g>
</g>
<g>
</g>
<g>
</g>
<g>
</g>
<g>
</g>
<g>
</g>
<g>
</g>
<g>
</g>
<g>
</g>
<g>
</g>
<g>
</g>
<g>
</g>
</svg>
